<svg width="19" height="20" viewBox="0 0 19 20" fill="none" xmlns="http://www.w3.org/2000/svg">
<path fill-rule="evenodd" clip-rule="evenodd" d="M9.71028 4.01938C9.55712 3.84694 9.28775 3.84694 9.13459 4.01938L4.18002 9.59739C3.95946 9.84571 4.13574 10.2381 4.46787 10.2381H6.34254C6.55517 10.2381 6.72754 10.4104 6.72754 10.6231V15.4356C6.72754 15.6482 6.89991 15.8206 7.11254 15.8206H11.7325C11.9452 15.8206 12.1175 15.6482 12.1175 15.4356V10.6231C12.1175 10.4104 12.2899 10.2381 12.5025 10.2381H14.377C14.7091 10.2381 14.8854 9.84571 14.6649 9.59739L9.71028 4.01938L9.99813 3.7637L9.71028 4.01938ZM8.5589 3.50803C9.01838 2.99072 9.82649 2.99072 10.286 3.50803L15.2405 9.08604C15.9022 9.831 15.3734 11.0081 14.377 11.0081H12.8875V15.4356C12.8875 16.0735 12.3704 16.5906 11.7325 16.5906H7.11254C6.47465 16.5906 5.95754 16.0735 5.95754 15.4356V11.0081H4.46787C3.47148 11.0081 2.94263 9.831 3.60433 9.08604L8.5589 3.50803Z" fill="white"/>
</svg>
